{
  "accessors": [
    {
      "bufferView": 2,
      "componentType": 5126,
      "count": 2709,
      "max": [
        10.385990142822266,
        10.310850143432617,
        10.048580169677734
      ],
      "min": [
        -10.385990142822266,
        0.0,
        -10.048580169677734
      ],
      "type": "VEC3"
    },
    {
      "bufferView": 2,
      "byteOffset": 32508,
      "componentType": 5126,
      "count": 2709,
      "max": [
        0.9932371973991394,
        1.0,
        0.9998958110809326
      ],
      "min": [
        -0.9969651103019714,
        -0.9614256024360657,
        -0.9829823970794678
      ],
      "type": "VEC3"
    },
    {
      "bufferView": 1,
      "componentType": 5126,
      "count": 2709,
      "max": [
        0.4888145923614502,
        0.35499119758605957
      ],
      "min": [
        0.19788040220737457,
        0.010819589719176292
      ],
      "type": "VEC2"
    },
    {
      "bufferView": 0,
      "componentType": 5125,
      "count": 3345,
      "type": "SCALAR"
    }
  ],
  "asset": {
    "extras": {
      "author": "nigromancer (https://sketchfab.com/nigromancer)",
      "license": "CC-BY-4.0 (http://creativecommons.org/licenses/by/4.0/)",
      "source": "https://sketchfab.com/3d-models/snow-mountain-28d511ddb8624eee9684e93824e543f5",
      "title": "Snow Mountain"
    },
    "generator": "Sketchfab-12.65.0",
    "version": "2.0"
  },
  "bufferViews": [
    {
      "buffer": 0,
      "byteLength": 13380,
      "name": "floatBufferViews",
      "target": 34963
    },
    {
      "buffer": 0,
      "byteLength": 21672,
      "byteOffset": 13380,
      "byteStride": 8,
      "name": "floatBufferViews",
      "target": 34962
    },
    {
      "buffer": 0,
      "byteLength": 65016,
      "byteOffset": 35052,
      "byteStride": 12,
      "name": "floatBufferViews",
      "target": 34962
    }
  ],
  "buffers": [
    {
      "byteLength": 100068,
      "uri": "scene.bin"
    }
  ],
  "images": [
    {
      "uri": "textures/SM_Generic_Mountains_Snow_01_PolygonTown_01_A_baseColor.png"
    }
  ],
  "materials": [
    {
      "doubleSided": true,
      "name": "SM_Generic_Mountains_Snow_01_PolygonTown_01_A",
      "pbrMetallicRoughness": {
        "baseColorTexture": {
          "index": 0
        },
        "metallicFactor": 0.0,
        "roughnessFactor": 0.9577051494623774
      }
    }
  ],
  "meshes": [
    {
      "name": "SM_Generic_Mountains_Snow_01_SM_Generic_Mountains_Snow_01_PolygonTown_01_A_0",
      "primitives": [
        {
          "attributes": {
            "NORMAL": 1,
            "POSITION": 0,
            "TEXCOORD_0": 2
          },
          "indices": 3,
          "material": 0,
          "mode": 4
        }
      ]
    }
  ],
  "nodes": [
    {
      "children": [
        1
      ],
      "matrix": [
        1.0,
        0.0,
        0.0,
        0.0,
        0.0,
        2.220446049250313e-16,
        -1.0,
        0.0,
        0.0,
        1.0,
        2.220446049250313e-16,
        0.0,
        0.0,
        0.0,
        0.0,
        1.0
      ],
      "name": "Sketchfab_model"
    },
    {
      "children": [
        2
      ],
      "matrix": [
        1.0,
        0.0,
        0.0,
        0.0,
        0.0,
        0.0,
        1.0,
        0.0,
        0.0,
        -1.0,
        0.0,
        0.0,
        0.0,
        0.0,
        0.0,
        1.0
      ],
      "name": "SM_Generic_Mountains_Snow_01.fbx"
    },
    {
      "children": [
        3
      ],
      "name": "RootNode"
    },
    {
      "children": [
        4
      ],
      "name": "SM_Generic_Mountains_Snow_01"
    },
    {
      "mesh": 0,
      "name": "SM_Generic_Mountains_Snow_01_SM_Generic_Mountains_Snow_01_PolygonTown_01_A_0"
    }
  ],
  "samplers": [
    {
      "magFilter": 9729,
      "minFilter": 9987,
      "wrapS": 10497,
      "wrapT": 10497
    }
  ],
  "scene": 0,
  "scenes": [
    {
      "name": "Sketchfab_Scene",
      "nodes": [
        0
      ]
    }
  ],
  "textures": [
    {
      "sampler": 0,
      "source": 0
    }
  ]
}
